<?xml version="1.0" standalone="no"?>
<!DOCTYPE svg PUBLIC "-//W3C//DTD SVG 20010904//EN"
 "http://www.w3.org/TR/2001/REC-SVG-20010904/DTD/svg10.dtd">
<svg version="1.0" xmlns="http://www.w3.org/2000/svg"
 width="1254.000000pt" height="1280.000000pt" viewBox="0 0 1254.000000 1280.000000"
 preserveAspectRatio="xMidYMid meet">
<metadata>
Created by potrace 1.15, written by Peter Selinger 2001-2017
</metadata>
<g transform="translate(0.000000,1280.000000) scale(0.100000,-0.100000)"
fill="#FFFFFF" stroke="none">
<path d="M9073 12782 c-69 -25 -132 -78 -168 -143 l-30 -54 -3 -505 -3 -505
-124 -24 c-69 -13 -182 -43 -251 -66 l-125 -42 -33 56 c-17 31 -124 216 -237
411 -122 212 -220 370 -243 393 -59 60 -116 82 -211 82 -96 0 -152 -22 -215
-85 -81 -81 -110 -204 -73 -310 11 -30 124 -235 251 -454 l231 -399 -66 -62
-67 -62 45 -38 c96 -83 319 -316 404 -420 330 -407 556 -854 679 -1346 53
-209 76 -355 101 -630 l6 -67 67 -7 c207 -21 475 -84 690 -161 260 -93 594
-276 820 -450 45 -35 86 -64 91 -64 5 0 67 61 138 135 l130 134 409 -236 c225
-130 429 -243 454 -250 136 -43 300 37 363 175 46 103 18 251 -65 333 -18 19
-213 137 -431 263 -219 126 -404 234 -412 240 -12 9 -10 23 15 94 34 95 73
245 90 345 l12 67 484 0 c469 0 485 1 540 21 163 61 244 249 175 407 -30 66
-113 144 -177 166 -41 14 -114 16 -534 16 l-487 0 -23 119 c-12 65 -42 177
-65 247 -32 97 -40 132 -31 140 6 6 189 113 406 238 245 141 411 243 437 268
87 85 113 223 64 336 -60 134 -221 211 -361 172 -20 -5 -222 -118 -450 -249
l-415 -240 -44 52 c-60 69 -203 212 -269 268 l-54 45 236 410 c137 236 243
432 253 463 31 106 -5 219 -94 301 -124 113 -321 104 -427 -21 -17 -21 -136
-220 -264 -443 l-233 -405 -67 26 c-80 30 -307 89 -380 99 l-51 6 -3 502 c-3
501 -3 501 -26 548 -30 60 -90 121 -149 149 -63 30 -162 35 -230 11z"/>
<path d="M5225 11239 c-684 -64 -1296 -350 -1776 -828 -85 -86 -186 -194 -223
-241 -226 -285 -407 -631 -511 -975 -61 -202 -115 -509 -115 -653 0 -55 -8
-62 -85 -62 -22 0 -102 -9 -177 -20 -571 -84 -1088 -339 -1502 -740 -226 -220
-401 -454 -534 -717 -193 -381 -284 -735 -299 -1158 -27 -775 277 -1522 838
-2059 62 -60 154 -140 204 -179 101 -79 323 -227 340 -227 6 0 197 539 424
1197 228 659 431 1243 453 1299 135 352 482 636 866 710 114 22 1441 21 1550
-2 160 -32 309 -112 426 -229 91 -91 150 -186 192 -310 48 -144 45 -363 -8
-520 -30 -89 -59 -144 -362 -677 -152 -268 -276 -490 -276 -492 0 -2 161 -6
358 -9 394 -4 442 -10 588 -77 392 -177 549 -632 354 -1025 -22 -44 -64 -113
-95 -153 l-54 -73 1567 4 c1720 3 1606 -1 1877 64 911 216 1625 944 1829 1863
44 199 51 280 50 545 -1 223 -4 266 -27 395 -90 506 -310 936 -662 1299 -397
409 -877 649 -1465 732 -107 15 -482 16 -575 1 -38 -6 -71 -9 -73 -8 -2 2 2
39 8 83 48 346 28 702 -61 1063 -282 1147 -1247 2009 -2424 2165 -146 19 -483
27 -620 14z"/>
<path d="M3235 5968 c-134 -25 -300 -147 -362 -265 -17 -32 -228 -627 -469
-1323 -416 -1199 -439 -1269 -439 -1335 0 -58 5 -78 27 -116 24 -41 70 -80
123 -105 11 -5 262 -11 565 -14 l545 -5 53 -29 c96 -53 130 -149 94 -261 -11
-33 -243 -571 -516 -1195 -274 -624 -504 -1156 -513 -1182 -27 -85 -3 -100 64
-40 68 59 2960 3381 2979 3420 30 64 30 104 -2 141 -15 18 -39 38 -53 44 -19
9 -231 13 -751 17 l-725 5 -50 25 c-66 33 -95 77 -95 145 0 29 5 67 12 86 6
19 223 408 482 864 259 457 479 855 489 885 34 101 2 180 -93 224 -44 21 -58
21 -680 23 -373 0 -656 -3 -685 -9z"/>
<path d="M5725 2496 c-101 -32 -179 -92 -229 -178 -15 -26 -144 -424 -303
-934 l-276 -889 -1 -100 c-1 -92 1 -105 30 -165 119 -250 445 -304 635 -103
27 29 59 73 70 97 10 24 141 437 291 917 l272 874 0 105 c1 93 -2 111 -25 161
-66 141 -208 230 -363 228 -34 0 -79 -6 -101 -13z"/>
<path d="M7795 2490 c-106 -36 -202 -125 -239 -225 -34 -91 -554 -1793 -560
-1831 -3 -22 -1 -66 4 -98 27 -169 152 -296 323 -327 154 -28 326 53 401 190
15 28 151 450 303 938 l277 888 0 95 c1 87 -2 101 -31 162 -64 136 -189 219
-338 225 -60 2 -95 -2 -140 -17z"/>
</g>
</svg>
